<svg width="30" height="31" viewBox="0 0 30 31" fill="none" xmlns="http://www.w3.org/2000/svg">
<path d="M21.25 19.2495C21.25 23.3745 21.25 25.437 20.0601 26.7185C18.8702 28 16.9551 28 13.125 28C9.29484 28 7.37976 28 6.18988 26.7185C5 25.437 5 23.3745 5 19.2495V11.749C5 7.62395 5 5.56143 6.18988 4.27994C7.25295 3.13501 8.8949 3.013 11.9643 3" stroke="white" stroke-width="1.5" stroke-linecap="round"/>
<path d="M20 5.5H17.5C16.3215 5.5 15.7323 5.5 15.3661 5.86611C15 6.23224 15 6.82149 15 8V10.5C15 11.6785 15 12.2678 15.3661 12.6339C15.7323 13 16.3215 13 17.5 13H20C21.1785 13 21.7677 13 22.1339 12.6339C22.5 12.2678 22.5 11.6785 22.5 10.5V8C22.5 6.82149 22.5 6.23224 22.1339 5.86611C21.7677 5.5 21.1785 5.5 20 5.5Z" stroke="white" stroke-width="1.5" stroke-linecap="round" stroke-linejoin="round"/>
<path d="M16.875 13V15.5M20.625 13V15.5M16.875 3V5.5M20.625 3V5.5M15 7.375H12.5M15 11.125H12.5M25 7.375H22.5M25 11.125H22.5" stroke="white" stroke-width="1.5" stroke-linecap="round" stroke-linejoin="round"/>
<path d="M13.1125 24.25H13.1238" stroke="white" stroke-width="2" stroke-linecap="round" stroke-linejoin="round"/>
</svg>
