<svg width="30" height="31" viewBox="0 0 30 31" fill="none" xmlns="http://www.w3.org/2000/svg">
<path d="M13.75 23H18.75M16.875 10.5H18.0536C19.6916 10.5 20.5107 10.5 21.2051 10.8931C21.8995 11.2863 22.3625 12.0122 23.2885 13.4639C23.9378 14.4818 24.6194 15.2206 25.5778 15.878C26.5426 16.5397 27.0015 16.8632 27.2561 17.3825C27.5 17.8797 27.5 18.4687 27.5 19.6466C27.5 21.1995 27.5 21.976 27.0637 22.4694C27.045 22.4906 27.0259 22.5112 27.0061 22.5312C26.5469 23 25.8243 23 24.3788 23H23.75" stroke="white" stroke-width="1.5" stroke-linecap="round" stroke-linejoin="round"/>
<path d="M6.25 23C4.48224 23 3.59835 23 3.04918 22.4509C2.5 21.9016 2.5 21.0177 2.5 19.25V10.5C2.5 8.73224 2.5 7.84835 3.04918 7.29918C3.59835 6.75 4.48224 6.75 6.25 6.75H13.125C14.8927 6.75 15.7766 6.75 16.3259 7.29918C16.875 7.84835 16.875 8.73224 16.875 10.5V23H11.25" stroke="white" stroke-width="1.5" stroke-linecap="round" stroke-linejoin="round"/>
<path d="M27.5 19.25H26.25" stroke="white" stroke-width="1.5" stroke-linecap="round" stroke-linejoin="round"/>
<path d="M21.25 25.5C22.6307 25.5 23.75 24.3807 23.75 23C23.75 21.6193 22.6307 20.5 21.25 20.5C19.8693 20.5 18.75 21.6193 18.75 23C18.75 24.3807 19.8693 25.5 21.25 25.5Z" stroke="white" stroke-width="1.5"/>
<path d="M8.75 25.5C10.1307 25.5 11.25 24.3807 11.25 23C11.25 21.6193 10.1307 20.5 8.75 20.5C7.36929 20.5 6.25 21.6193 6.25 23C6.25 24.3807 7.36929 25.5 8.75 25.5Z" stroke="white" stroke-width="1.5"/>
</svg>
