<svg width="30" height="31" viewBox="0 0 30 31" fill="none" xmlns="http://www.w3.org/2000/svg">
<path d="M3.125 15.5C3.125 9.90207 3.125 7.10311 4.86405 5.36405C6.60311 3.625 9.40207 3.625 15 3.625C20.5979 3.625 23.3969 3.625 25.136 5.36405C26.875 7.10311 26.875 9.90207 26.875 15.5C26.875 21.0979 26.875 23.8969 25.136 25.636C23.3969 27.375 20.5979 27.375 15 27.375C9.40207 27.375 6.60311 27.375 4.86405 25.636C3.125 23.8969 3.125 21.0979 3.125 15.5Z" stroke="white" stroke-width="1.5" stroke-linejoin="round"/>
<path d="M13.75 9.875H21.25M10 9.875C10 10.2202 9.72018 10.5 9.375 10.5C9.02982 10.5 8.75 10.2202 8.75 9.875C8.75 9.52982 9.02982 9.25 9.375 9.25C9.72018 9.25 10 9.52982 10 9.875Z" stroke="white" stroke-width="1.5" stroke-linecap="round" stroke-linejoin="round"/>
<path d="M13.75 15.5H21.25M10 15.5C10 15.8451 9.72018 16.125 9.375 16.125C9.02982 16.125 8.75 15.8451 8.75 15.5C8.75 15.1549 9.02982 14.875 9.375 14.875C9.72018 14.875 10 15.1549 10 15.5Z" stroke="white" stroke-width="1.5" stroke-linecap="round" stroke-linejoin="round"/>
<path d="M13.75 21.125H21.25M10 21.125C10 21.4701 9.72018 21.75 9.375 21.75C9.02982 21.75 8.75 21.4701 8.75 21.125C8.75 20.7799 9.02982 20.5 9.375 20.5C9.72018 20.5 10 20.7799 10 21.125Z" stroke="white" stroke-width="1.5" stroke-linecap="round" stroke-linejoin="round"/>
</svg>
