<svg width="30" height="31" viewBox="0 0 30 31" fill="none" xmlns="http://www.w3.org/2000/svg">
<path d="M9.375 6.68164H20C21.0355 6.68164 21.875 7.5211 21.875 8.55664V10.4316" stroke="white" stroke-width="1.5" stroke-linecap="round" stroke-linejoin="round"/>
<path d="M18.75 16.6816H11.25" stroke="white" stroke-width="1.5" stroke-linecap="round" stroke-linejoin="round"/>
<path d="M15 21.6816H11.25" stroke="white" stroke-width="1.5" stroke-linecap="round" stroke-linejoin="round"/>
<path d="M23.1212 3L7.88459 3.00003C7.26339 3.00003 6.62801 3.09118 6.12588 3.45978C4.53373 4.62849 3.30674 7.23501 5.78455 9.58825C6.48026 10.249 7.45271 10.4885 8.40865 10.4885H22.8544C23.8463 10.4885 25.625 10.6305 25.625 13.6591V22.9765C25.625 25.7509 23.3879 28 20.6282 28H9.34058C6.58608 28 4.58274 26.0533 4.42449 23.0891L4.38263 6.95797" stroke="white" stroke-width="1.5" stroke-linecap="round"/>
</svg>
