<svg width="30" height="31" viewBox="0 0 30 31" fill="none" xmlns="http://www.w3.org/2000/svg">
<path d="M22.1875 13.625C25.1215 13.625 27.5 11.2465 27.5 8.3125C27.5 5.37849 25.1215 3 22.1875 3C19.2535 3 16.875 5.37849 16.875 8.3125C16.875 11.2465 19.2535 13.625 22.1875 13.625Z" stroke="white" stroke-width="1.5"/>
<path d="M7.8125 13.625C10.7465 13.625 13.125 11.2465 13.125 8.3125C13.125 5.37849 10.7465 3 7.8125 3C4.87849 3 2.5 5.37849 2.5 8.3125C2.5 11.2465 4.87849 13.625 7.8125 13.625Z" stroke="white" stroke-width="1.5"/>
<path d="M22.1875 28C25.1215 28 27.5 25.6215 27.5 22.6875C27.5 19.7535 25.1215 17.375 22.1875 17.375C19.2535 17.375 16.875 19.7535 16.875 22.6875C16.875 25.6215 19.2535 28 22.1875 28Z" stroke="white" stroke-width="1.5"/>
<path d="M7.8125 28C10.7465 28 13.125 25.6215 13.125 22.6875C13.125 19.7535 10.7465 17.375 7.8125 17.375C4.87849 17.375 2.5 19.7535 2.5 22.6875C2.5 25.6215 4.87849 28 7.8125 28Z" stroke="white" stroke-width="1.5"/>
</svg>
