<svg width="35" height="35" viewBox="0 0 35 35" fill="none" xmlns="http://www.w3.org/2000/svg">
<rect width="35" height="35" rx="10.9375" fill="#017E84"/>
<path d="M11.3021 26.7969H23.6979C24.5198 26.7969 25.308 26.4704 25.8892 25.8892C26.4704 25.3081 26.7969 24.5198 26.7969 23.6979V11.3021C26.7969 10.4802 26.4704 9.69198 25.8892 9.11082C25.308 8.52965 24.5198 8.20315 23.6979 8.20315H22.6649C22.6649 7.92919 22.5561 7.66644 22.3624 7.47272C22.1687 7.279 21.9059 7.17017 21.6319 7.17017C21.358 7.17017 21.0952 7.279 20.9015 7.47272C20.7078 7.66644 20.599 7.92919 20.599 8.20315H14.401C14.401 7.92919 14.2922 7.66644 14.0985 7.47272C13.9048 7.279 13.642 7.17017 13.3681 7.17017C13.0941 7.17017 12.8313 7.279 12.6376 7.47272C12.4439 7.66644 12.3351 7.92919 12.3351 8.20315H11.3021C10.4802 8.20315 9.69196 8.52965 9.11079 9.11082C8.52962 9.69198 8.20313 10.4802 8.20312 11.3021V23.6979C8.20313 24.5198 8.52962 25.3081 9.11079 25.8892C9.69196 26.4704 10.4802 26.7969 11.3021 26.7969ZM10.2691 11.3021C10.2691 11.0281 10.3779 10.7654 10.5717 10.5717C10.7654 10.378 11.0281 10.2691 11.3021 10.2691H12.3351V11.3021C12.3351 11.5761 12.4439 11.8388 12.6376 12.0325C12.8313 12.2263 13.0941 12.3351 13.3681 12.3351C13.642 12.3351 13.9048 12.2263 14.0985 12.0325C14.2922 11.8388 14.401 11.5761 14.401 11.3021V10.2691H20.599V11.3021C20.599 11.5761 20.7078 11.8388 20.9015 12.0325C21.0952 12.2263 21.358 12.3351 21.6319 12.3351C21.9059 12.3351 22.1687 12.2263 22.3624 12.0325C22.5561 11.8388 22.6649 11.5761 22.6649 11.3021V10.2691H23.6979C23.9719 10.2691 24.2346 10.378 24.4284 10.5717C24.6221 10.7654 24.7309 11.0281 24.7309 11.3021V14.4011H10.2691V11.3021ZM10.2691 16.467H24.7309V23.6979C24.7309 23.9719 24.6221 24.2347 24.4284 24.4284C24.2346 24.6221 23.9719 24.7309 23.6979 24.7309H11.3021C11.0281 24.7309 10.7654 24.6221 10.5717 24.4284C10.3779 24.2347 10.2691 23.9719 10.2691 23.6979V16.467Z" fill="white"/>
</svg>
