<svg width="20" height="12" viewBox="0 0 20 12" fill="none" xmlns="http://www.w3.org/2000/svg">
<path d="M9.98893 11.4717C9.75789 11.4697 9.53666 11.378 9.37192 11.216L0.644643 2.48872C0.485669 2.32412 0.397703 2.10367 0.399691 1.87484C0.40168 1.64602 0.493463 1.42713 0.655274 1.26532C0.817085 1.1035 1.03598 1.01172 1.2648 1.00973C1.49363 1.00774 1.71408 1.09571 1.87868 1.25468L9.98893 9.36494L18.0992 1.25468C18.1797 1.17133 18.276 1.10484 18.3825 1.0591C18.4889 1.01337 18.6035 0.989291 18.7193 0.988284C18.8352 0.987277 18.9501 1.00936 19.0574 1.05324C19.1647 1.09712 19.2621 1.16192 19.344 1.24387C19.426 1.32581 19.4908 1.42325 19.5347 1.53051C19.5786 1.63776 19.6006 1.75268 19.5996 1.86856C19.5986 1.98444 19.5745 2.09896 19.5288 2.20544C19.4831 2.31191 19.4166 2.40821 19.3332 2.48872L10.606 11.216C10.4412 11.378 10.22 11.4697 9.98893 11.4717Z" fill="#2B3644"/>
</svg>
