<svg width="33" height="23" viewBox="0 0 33 23" fill="none" xmlns="http://www.w3.org/2000/svg">
<path d="M32.1984 19.7987V22.5987H0.697272V19.6356C0.69571 19.0097 0.973832 18.4159 1.45573 18.0164C3.1555 16.6447 4.98384 15.4403 6.91487 14.4198C7.03965 14.711 8.24927 17.4919 9.02047 18.6662V18.6659C9.03119 18.688 9.05351 18.7021 9.07806 18.7021C9.10261 18.7021 9.12494 18.688 9.13565 18.6659C9.29235 18.1956 9.89725 16.5635 10.8155 16.6755H10.8158C10.8446 16.6842 10.8754 16.6704 10.8881 16.6432C10.9008 16.6162 10.8919 16.5836 10.8669 16.5668C10.1725 16.0133 8.41242 14.5892 7.74367 13.7956V11.8789C7.44591 11.3726 7.243 10.8164 7.14522 10.2372C6.91486 10.218 6.61396 9.89788 6.28762 8.74923C5.86842 7.27088 6.26195 6.97648 6.64275 6.97957C6.44119 6.11551 5.92915 3.11397 8.16286 1.75077C7.89434 1.52398 7.73875 1.1905 7.73719 0.838939C7.73719 0.838939 10.2973 1.12689 11.5165 0.874207C12.7357 0.621304 14.0765 1.58781 14.2845 2.51906C14.2845 2.51906 16.7836 2.51906 15.8142 6.98312C16.2046 6.96705 16.6303 7.23603 16.1982 8.75278C15.8781 9.90164 15.5582 10.2249 15.3406 10.2407V10.2405C15.2432 10.8198 15.0403 11.376 14.7421 11.882V13.783C14.07 14.5765 12.3133 16.0037 11.6158 16.5542C11.5908 16.5709 11.5816 16.6033 11.5945 16.6305C11.6073 16.6577 11.6381 16.6716 11.6669 16.6629C12.5852 16.5508 13.1901 18.1796 13.3468 18.6533C13.3575 18.6754 13.38 18.6894 13.4043 18.6894C13.4289 18.6894 13.4514 18.6754 13.4622 18.6533C14.2334 17.4789 15.443 14.6981 15.5678 14.4069C16.8673 15.099 18.1231 15.8705 19.3276 16.7174C19.7334 16.5821 20.1289 16.4187 20.5118 16.2276L20.5821 16.1861C20.7818 16.0569 20.9022 15.8352 20.9022 15.5973V14.4037C17.7437 14.4325 16.8127 13.0789 16.8127 13.0789C16.8127 13.0789 18.6176 13.0501 18.5055 8.27892C18.3933 3.50772 20.5725 2.73652 21.3917 2.43892C23.7756 1.53332 24.9725 2.9733 24.9725 2.9733C27.7372 2.71727 28.4926 5.73804 28.1725 9.17502C27.8524 12.6119 29.7214 13.1494 29.7214 13.1494C28.4254 14.4742 25.6894 14.3909 25.6894 14.3909V15.623H25.6892C25.6892 15.861 25.8095 16.0826 26.0093 16.2119L26.0925 16.263C27.0526 16.7654 29.0238 17.2871 29.0622 17.3063C29.7073 17.4813 30.3343 17.7181 30.9341 18.0134C31.6372 18.3485 32.1158 19.0246 32.1981 19.7989L32.1984 19.7987Z" fill="#F29425"/>
</svg>
