<svg width="40" height="41" viewBox="0 0 40 41" fill="none" xmlns="http://www.w3.org/2000/svg">
<path fill-rule="evenodd" clip-rule="evenodd" d="M13.2582 3.83342C12.8747 3.83342 12.5258 4.18235 12.5258 4.56576V7.12912H10.6948C10.3114 7.12912 9.96246 7.47805 9.96246 7.86146V10.7912H7.3991C7.01338 10.7876 6.67055 11.1424 6.66676 11.5235V35.3267C6.66446 35.7117 7.00956 36.0629 7.3991 36.0591H26.4417C26.8312 36.0626 27.1763 35.7116 27.174 35.3267V32.397H29.3714C29.7609 32.4006 30.1175 32.0496 30.1152 31.6647L30.1037 29.1013H32.3011C32.6845 29.1013 33.0334 28.7524 33.0334 28.369V11.1574C33.0334 10.8473 32.9243 10.646 32.7703 10.4478L27.8379 4.26809C27.7023 4.10869 27.3242 3.83562 26.808 3.83333L13.2582 3.83342ZM13.9905 5.2981H26.4414V8.96014L25.1254 7.49545C24.9652 7.30259 24.7933 7.12914 24.6104 7.12914H13.9905V5.2981ZM27.9062 6.76278L30.8359 10.4248H27.9062V6.76278ZM11.4271 8.5938H23.878V13.3545L22.047 11.1572C21.8375 10.8981 21.5757 10.7909 21.3146 10.7909H11.4271V8.5935L11.4271 8.5938ZM25.3428 10.0585L27.9062 13.7205H25.3428V10.0585ZM28.6385 11.8895H31.5682V27.6362H30.1035V14.4529C30.1035 14.0866 30.0463 13.7548 29.7372 13.3542L28.6385 11.8895ZM22.0468 13.3542L24.9765 17.3826H22.0468V13.3542ZM10.9921 14.4529L10.9923 14.4531C11.0151 14.4521 11.0381 14.4521 11.061 14.4531H15.4554C15.8598 14.4531 16.1878 14.7811 16.1878 15.1857V19.5801C16.1878 19.9845 15.8598 20.3124 15.4554 20.3124H11.061C10.6564 20.3124 10.3287 19.9844 10.3284 19.5801V15.1857C10.3269 14.8064 10.6148 14.4889 10.9923 14.4531L10.9921 14.4529ZM25.3427 15.1852H28.6384V30.9319H27.1737V17.7486C27.1737 17.5146 26.9285 17.19 26.8074 17.0163L25.3427 15.1852ZM10.9921 22.1431L10.9923 22.1433C11.0151 22.1423 11.0381 22.1423 11.061 22.1433H23.1458H23.1455C23.3407 22.1405 23.5287 22.2164 23.6676 22.3541C23.8066 22.4917 23.8848 22.6798 23.8848 22.8757C23.8848 23.0719 23.8066 23.2596 23.6676 23.3973C23.5287 23.535 23.3407 23.6108 23.1455 23.608H11.0608H11.061C10.6585 23.6272 10.3169 23.3148 10.2978 22.9102C10.2789 22.5058 10.5897 22.1625 10.9923 22.1433L10.9921 22.1431ZM10.9921 25.0728L10.9923 25.073C11.0151 25.072 11.0381 25.072 11.061 25.073H23.1458H23.1455C23.3407 25.0702 23.5287 25.1461 23.6676 25.2838C23.8066 25.4214 23.8848 25.6094 23.8848 25.8054C23.8848 26.0016 23.8066 26.1893 23.6676 26.327C23.5287 26.4647 23.3407 26.5405 23.1455 26.5377H11.0608H11.061C10.6585 26.5569 10.3169 26.2442 10.2978 25.8399C10.2789 25.4355 10.5897 25.0921 10.9923 25.073L10.9921 25.0728ZM10.9921 28.0024L10.9923 28.0027C11.0151 28.0014 11.0381 28.0014 11.061 28.0027H23.1458H23.1455C23.3407 27.9999 23.5287 28.0758 23.6676 28.2134C23.8066 28.3511 23.8848 28.5389 23.8848 28.7351C23.8848 28.931 23.8066 29.119 23.6676 29.2567C23.5287 29.3944 23.3407 29.4702 23.1455 29.4674H11.0608H11.061C10.6585 29.4863 10.3169 29.1739 10.2978 28.7695C10.2789 28.3652 10.5897 28.0216 10.9923 28.0027L10.9921 28.0024ZM10.9921 30.9321H10.9923C11.0151 30.9311 11.0381 30.9311 11.061 30.9321H23.1458H23.1455C23.3407 30.9296 23.5287 31.0054 23.6676 31.1431C23.8066 31.2808 23.8848 31.4686 23.8848 31.6648C23.8848 31.8607 23.8066 32.0487 23.6676 32.1864C23.5287 32.3238 23.3407 32.3999 23.1455 32.3971H11.0608H11.061C10.6585 32.416 10.3169 32.1036 10.2978 31.6992C10.2789 31.2946 10.5897 30.9513 10.9923 30.9322L10.9921 30.9321Z" fill="#248CD8"/>
</svg>
