<svg width="35" height="35" viewBox="0 0 35 35" fill="none" xmlns="http://www.w3.org/2000/svg">
<path d="M6.2714 21.2783V19.4966C6.2714 19.03 6.64894 18.6483 7.11966 18.6483H16.4514V21.2781C16.723 21.2231 17.0071 21.1932 17.2997 21.1932C17.5881 21.1932 17.8722 21.2228 18.1479 21.2781L18.1482 18.6483H27.9041C28.3707 18.6483 28.7524 19.03 28.7524 19.4966V21.2781C29.024 21.2231 29.308 21.1932 29.6007 21.1932C29.8891 21.1932 30.1732 21.2228 30.4489 21.2781L30.4492 19.4966C30.4492 18.0926 29.3039 16.9514 27.904 16.9514L18.1481 16.9517V14.4065H16.4516V16.9517H7.11988C5.71595 16.9517 4.57471 18.0926 4.57471 19.4969V21.2784C4.84632 21.2233 5.13036 21.1935 5.42297 21.1935C5.71145 21.1935 5.99579 21.223 6.27123 21.2784L6.2714 21.2783Z" fill="#FFBC1F"/>
<path d="M19.7218 28.9089C19.0344 29.3923 18.1989 29.6767 17.2997 29.6767C16.396 29.6767 15.5605 29.3924 14.8735 28.9089C13.3507 29.2441 12.2097 30.6013 12.2097 32.2215V33.918C12.2097 34.3846 12.5873 34.7663 13.058 34.7663H21.5414C22.008 34.7663 22.3896 34.3846 22.3896 33.918V32.2215C22.3896 30.6012 21.2443 29.244 19.7217 28.9089H19.7218Z" fill="#FFBC1F"/>
<path d="M31.904 28.9899C31.238 29.4228 30.4492 29.6772 29.6007 29.6772C28.6633 29.6772 27.7979 29.3674 27.0937 28.8499C25.4057 29.0408 24.0867 30.4788 24.0867 32.2221V33.9186C24.0867 34.3852 24.4642 34.7669 24.9349 34.7669H33.4183C33.8849 34.7669 34.2666 34.3852 34.2666 33.9186V32.2221C34.2666 30.7122 33.2698 29.427 31.904 28.9899V28.9899Z" fill="#FFBC1F"/>
<path d="M7.8453 28.9089C7.15827 29.3923 6.32246 29.6767 5.42322 29.6767C4.51958 29.6767 3.68404 29.3924 2.99704 28.9089C1.47419 29.2441 0.333252 30.6013 0.333252 32.2215V33.918C0.333252 34.3846 0.710794 34.7663 1.18152 34.7663H9.66491C10.1315 34.7663 10.5132 34.3846 10.5132 33.918V32.2215C10.5132 30.6012 9.36815 29.244 7.84523 28.9089H7.8453Z" fill="#FFBC1F"/>
<path d="M19.8447 25.4351C19.8447 26.8406 18.7053 27.98 17.2996 27.98C15.8938 27.98 14.7544 26.8406 14.7544 25.4351C14.7544 24.0294 15.8938 22.89 17.2996 22.89C18.7053 22.89 19.8447 24.0294 19.8447 25.4351Z" fill="#FFBC1F"/>
<path d="M13.0578 12.7102H21.5412C22.0078 12.7102 22.3895 12.3285 22.3895 11.8619V10.1654C22.3895 8.54511 21.2441 7.18769 19.7215 6.85275C19.0342 7.33592 18.1987 7.62027 17.2994 7.62027C16.3958 7.62027 15.5603 7.33593 14.8733 6.85245C13.3504 7.18738 12.2095 8.54489 12.2095 10.1651V11.8616C12.2095 12.3285 12.587 12.7102 13.0577 12.7102H13.0578Z" fill="#FFBC1F"/>
<path d="M19.8447 3.37851C19.8447 4.78395 18.7053 5.92338 17.2996 5.92338C15.8938 5.92338 14.7544 4.78395 14.7544 3.37851C14.7544 1.97277 15.8938 0.833344 17.2996 0.833344C18.7053 0.833344 19.8447 1.97277 19.8447 3.37851Z" fill="#FFBC1F"/>
<path d="M32.1455 25.4351C32.1455 26.8406 31.006 27.98 29.6003 27.98C28.1948 27.98 27.0554 26.8406 27.0554 25.4351C27.0554 24.0294 28.1948 22.89 29.6003 22.89C31.006 22.89 32.1455 24.0294 32.1455 25.4351Z" fill="#FFBC1F"/>
<path d="M7.96821 25.4351C7.96821 26.8406 6.82878 27.98 5.42304 27.98C4.0176 27.98 2.87817 26.8406 2.87817 25.4351C2.87817 24.0294 4.0176 22.89 5.42304 22.89C6.82878 22.89 7.96821 24.0294 7.96821 25.4351" fill="#FFBC1F"/>
</svg>
