<svg width="34" height="35" viewBox="0 0 34 35" fill="none" xmlns="http://www.w3.org/2000/svg">
<path d="M5.96866 21.2783V19.4966C5.96866 19.03 6.34621 18.6483 6.81693 18.6483H16.1487V21.2781C16.4203 21.2231 16.7043 21.1932 16.9969 21.1932C17.2854 21.1932 17.5694 21.2228 17.8452 21.2781L17.8455 18.6483H27.6014C28.068 18.6483 28.4497 19.03 28.4497 19.4966V21.2781C28.7213 21.2231 29.0053 21.1932 29.2979 21.1932C29.5864 21.1932 29.8704 21.2228 30.1462 21.2781L30.1465 19.4966C30.1465 18.0926 29.0011 16.9514 27.6013 16.9514L17.8454 16.9517V14.4065H16.1489V16.9517H6.81714C5.41322 16.9517 4.27197 18.0926 4.27197 19.4969V21.2784C4.54359 21.2233 4.82763 21.1935 5.12024 21.1935C5.40872 21.1935 5.69305 21.223 5.9685 21.2784L5.96866 21.2783Z" fill="#A601FF"/>
<path d="M19.419 28.9089C18.7317 29.3923 17.8962 29.6767 16.9969 29.6767C16.0933 29.6767 15.2578 29.3924 14.5708 28.9089C13.0479 29.2441 11.907 30.6013 11.907 32.2215V33.918C11.907 34.3846 12.2845 34.7663 12.7552 34.7663H21.2386C21.7052 34.7663 22.0869 34.3846 22.0869 33.918V32.2215C22.0869 30.6012 20.9416 29.244 19.419 28.9089H19.419Z" fill="#A601FF"/>
<path d="M31.6013 28.9899C30.9353 29.4228 30.1465 29.6772 29.2979 29.6772C28.3606 29.6772 27.4951 29.3674 26.7909 28.8499C25.103 29.0408 23.7839 30.4788 23.7839 32.2221V33.9186C23.7839 34.3852 24.1615 34.7669 24.6322 34.7669H33.1156C33.5822 34.7669 33.9639 34.3852 33.9639 33.9186V32.2221C33.9639 30.7122 32.9671 29.427 31.6013 28.9899V28.9899Z" fill="#A601FF"/>
<path d="M7.54257 28.9089C6.85554 29.3923 6.01972 29.6767 5.12048 29.6767C4.21685 29.6767 3.38131 29.3924 2.6943 28.9089C1.17146 29.2441 0.0305176 30.6013 0.0305176 32.2215V33.918C0.0305176 34.3846 0.408059 34.7663 0.878782 34.7663H9.36218C9.82878 34.7663 10.2104 34.3846 10.2104 33.918V32.2215C10.2104 30.6012 9.06541 29.244 7.54249 28.9089H7.54257Z" fill="#A601FF"/>
<path d="M19.542 25.4351C19.542 26.8406 18.4026 27.98 16.9968 27.98C15.5911 27.98 14.4517 26.8406 14.4517 25.4351C14.4517 24.0294 15.5911 22.89 16.9968 22.89C18.4026 22.89 19.542 24.0294 19.542 25.4351Z" fill="#A601FF"/>
<path d="M12.7551 12.7102H21.2385C21.7051 12.7102 22.0867 12.3285 22.0867 11.8619V10.1654C22.0867 8.54511 20.9414 7.18769 19.4188 6.85275C18.7315 7.33592 17.8959 7.62027 16.9967 7.62027C16.0931 7.62027 15.2575 7.33593 14.5705 6.85245C13.0477 7.18738 11.9067 8.54489 11.9067 10.1651V11.8616C11.9067 12.3285 12.2843 12.7102 12.755 12.7102H12.7551Z" fill="#A601FF"/>
<path d="M19.542 3.37851C19.542 4.78395 18.4026 5.92338 16.9968 5.92338C15.5911 5.92338 14.4517 4.78395 14.4517 3.37851C14.4517 1.97277 15.5911 0.833344 16.9968 0.833344C18.4026 0.833344 19.542 1.97277 19.542 3.37851Z" fill="#A601FF"/>
<path d="M31.8427 25.4351C31.8427 26.8406 30.7033 27.98 29.2976 27.98C27.8921 27.98 26.7527 26.8406 26.7527 25.4351C26.7527 24.0294 27.8921 22.89 29.2976 22.89C30.7033 22.89 31.8427 24.0294 31.8427 25.4351Z" fill="#A601FF"/>
<path d="M7.66548 25.4351C7.66548 26.8406 6.52605 27.98 5.12031 27.98C3.71486 27.98 2.57544 26.8406 2.57544 25.4351C2.57544 24.0294 3.71486 22.89 5.12031 22.89C6.52605 22.89 7.66548 24.0294 7.66548 25.4351" fill="#A601FF"/>
</svg>
