<svg width="35" height="35" viewBox="0 0 35 35" fill="none" xmlns="http://www.w3.org/2000/svg">
<path d="M6.2714 20.7783V18.9966C6.2714 18.53 6.64894 18.1483 7.11966 18.1483H16.4514V20.7781C16.723 20.7231 17.0071 20.6932 17.2997 20.6932C17.5881 20.6932 17.8722 20.7228 18.1479 20.7781L18.1482 18.1483H27.9041C28.3707 18.1483 28.7524 18.53 28.7524 18.9966V20.7781C29.024 20.7231 29.308 20.6932 29.6007 20.6932C29.8891 20.6932 30.1732 20.7228 30.4489 20.7781L30.4492 18.9966C30.4492 17.5926 29.3039 16.4514 27.904 16.4514L18.1481 16.4517V13.9065H16.4516V16.4517H7.11988C5.71595 16.4517 4.57471 17.5926 4.57471 18.9969V20.7784C4.84632 20.7233 5.13036 20.6935 5.42297 20.6935C5.71145 20.6935 5.99579 20.723 6.27123 20.7784L6.2714 20.7783Z" fill="#10A242"/>
<path d="M19.7218 28.4089C19.0344 28.8923 18.1989 29.1767 17.2997 29.1767C16.396 29.1767 15.5605 28.8924 14.8735 28.4089C13.3507 28.7441 12.2097 30.1013 12.2097 31.7215V33.418C12.2097 33.8846 12.5873 34.2663 13.058 34.2663H21.5414C22.008 34.2663 22.3896 33.8846 22.3896 33.418V31.7215C22.3896 30.1012 21.2443 28.744 19.7217 28.4089H19.7218Z" fill="#10A242"/>
<path d="M31.904 28.4899C31.238 28.9228 30.4492 29.1772 29.6007 29.1772C28.6633 29.1772 27.7979 28.8674 27.0937 28.3499C25.4057 28.5408 24.0867 29.9788 24.0867 31.7221V33.4186C24.0867 33.8852 24.4642 34.2669 24.9349 34.2669H33.4183C33.8849 34.2669 34.2666 33.8852 34.2666 33.4186V31.7221C34.2666 30.2122 33.2698 28.927 31.904 28.4899V28.4899Z" fill="#10A242"/>
<path d="M7.8453 28.4089C7.15827 28.8923 6.32246 29.1767 5.42322 29.1767C4.51958 29.1767 3.68404 28.8924 2.99704 28.4089C1.47419 28.7441 0.333252 30.1013 0.333252 31.7215V33.418C0.333252 33.8846 0.710794 34.2663 1.18152 34.2663H9.66491C10.1315 34.2663 10.5132 33.8846 10.5132 33.418V31.7215C10.5132 30.1012 9.36815 28.744 7.84523 28.4089H7.8453Z" fill="#10A242"/>
<path d="M19.8447 24.9351C19.8447 26.3406 18.7053 27.48 17.2996 27.48C15.8938 27.48 14.7544 26.3406 14.7544 24.9351C14.7544 23.5294 15.8938 22.39 17.2996 22.39C18.7053 22.39 19.8447 23.5294 19.8447 24.9351Z" fill="#10A242"/>
<path d="M13.0578 12.2102H21.5412C22.0078 12.2102 22.3895 11.8285 22.3895 11.3619V9.66537C22.3895 8.04511 21.2441 6.68769 19.7215 6.35275C19.0342 6.83592 18.1987 7.12027 17.2994 7.12027C16.3958 7.12027 15.5603 6.83593 14.8733 6.35245C13.3504 6.68738 12.2095 8.04489 12.2095 9.66506V11.3616C12.2095 11.8285 12.587 12.2102 13.0577 12.2102H13.0578Z" fill="#10A242"/>
<path d="M19.8447 2.87851C19.8447 4.28395 18.7053 5.42338 17.2996 5.42338C15.8938 5.42338 14.7544 4.28395 14.7544 2.87851C14.7544 1.47277 15.8938 0.333344 17.2996 0.333344C18.7053 0.333344 19.8447 1.47277 19.8447 2.87851Z" fill="#10A242"/>
<path d="M32.1455 24.9351C32.1455 26.3406 31.006 27.48 29.6003 27.48C28.1948 27.48 27.0554 26.3406 27.0554 24.9351C27.0554 23.5294 28.1948 22.39 29.6003 22.39C31.006 22.39 32.1455 23.5294 32.1455 24.9351Z" fill="#10A242"/>
<path d="M7.96821 24.9351C7.96821 26.3406 6.82878 27.48 5.42304 27.48C4.0176 27.48 2.87817 26.3406 2.87817 24.9351C2.87817 23.5294 4.0176 22.39 5.42304 22.39C6.82878 22.39 7.96821 23.5294 7.96821 24.9351" fill="#10A242"/>
</svg>
