<svg width="30" height="31" viewBox="0 0 30 31" fill="none" xmlns="http://www.w3.org/2000/svg">
<path d="M4.99097 19.2488V9.20632C4.99097 6.83928 4.99097 5.65577 5.72047 4.92042C6.12718 4.51044 6.67208 4.32904 7.48162 4.24878H13.7082" stroke="white" stroke-width="1.5" stroke-linecap="round" stroke-linejoin="round"/>
<path d="M4.36502 20.518L5.01497 19.2487H24.8559L25.5414 20.518C27.3382 23.845 27.7859 25.5084 27.1027 26.7536C26.4199 27.9987 24.609 27.9988 20.9874 27.9988H8.91919C5.29752 27.9988 3.48669 27.9987 2.8037 26.7536C2.12071 25.5084 2.56816 23.845 4.36502 20.518Z" stroke="white" stroke-width="1.5" stroke-linecap="round" stroke-linejoin="round"/>
<path d="M19.2954 3.00122V5.475M14.9529 7.3767H17.5083M24.9443 7.3767H27.4996M24.9443 11.0932H27.4996M14.9529 11.0932H17.5083M19.2954 13.0252V15.499M23.063 13.0252V15.499M23.0496 3.00122V5.475M18.7536 12.9607H23.6989C24.3866 12.9607 24.9443 12.401 24.9443 11.7107V6.725C24.9443 6.03463 24.3866 5.475 23.6989 5.475H18.7536C18.0659 5.475 17.5083 6.03463 17.5083 6.725V11.7107C17.5083 12.401 18.0659 12.9607 18.7536 12.9607Z" stroke="white" stroke-width="1.5" stroke-linecap="round"/>
</svg>
