<svg width="27" height="28" viewBox="0 0 27 28" fill="none" xmlns="http://www.w3.org/2000/svg">
<path d="M10.0939 26.8095C6.99621 26.1748 4.27917 24.3435 2.54049 21.7185C0.801812 19.0935 0.183922 15.8897 0.822748 12.8121C1.46157 9.73441 3.30479 7.03493 5.9469 5.30749C8.58901 3.58005 11.8136 2.96616 14.9113 3.60085L12.5026 15.2052L10.0939 26.8095Z" fill="#017E84"/>
<path d="M17.081 1.16055C20.1838 1.76985 22.916 3.57883 24.6764 6.18953C26.4368 8.80023 27.0812 11.9988 26.468 15.0816C25.8547 18.1644 24.034 20.8789 21.4063 22.6279C18.7786 24.3769 15.5592 25.0172 12.4564 24.4079L14.7687 12.7842L17.081 1.16055Z" fill="#F29425"/>
</svg>
