<svg width="30" height="31" viewBox="0 0 30 31" fill="none" xmlns="http://www.w3.org/2000/svg">
<path d="M3.125 15.5C3.125 9.90207 3.125 7.10311 4.86405 5.36405C6.60311 3.625 9.40207 3.625 15 3.625C20.5979 3.625 23.3969 3.625 25.136 5.36405C26.875 7.10311 26.875 9.90207 26.875 15.5C26.875 21.0979 26.875 23.8969 25.136 25.636C23.3969 27.375 20.5979 27.375 15 27.375C9.40207 27.375 6.60311 27.375 4.86405 25.636C3.125 23.8969 3.125 21.0979 3.125 15.5Z" stroke="white" stroke-width="1.5"/>
<path d="M21.875 9.875H21.067C19.2511 9.875 17.5781 10.8595 16.6963 12.4468L13.3037 18.5533C12.4219 20.1405 10.7488 21.125 8.93299 21.125H8.125" stroke="white" stroke-width="1.5" stroke-linecap="round"/>
</svg>
