<svg width="41" height="40" viewBox="0 0 41 40" fill="none" xmlns="http://www.w3.org/2000/svg">
<path d="M29.0307 24.9993C29.0307 30.4993 29.0307 33.2493 27.4442 34.958C25.8577 36.6667 23.3042 36.6667 18.1973 36.6667C13.0905 36.6667 10.537 36.6667 8.95051 34.958C7.36401 33.2493 7.36401 30.4993 7.36401 24.9993V14.9986C7.36401 9.4986 7.36401 6.74856 8.95051 5.03991C10.3679 3.51335 12.5572 3.35066 16.6497 3.33333" stroke="#A601FF" stroke-width="1.5" stroke-linecap="round"/>
<path d="M27.3639 6.66667H24.0306C22.4593 6.66667 21.6736 6.66667 21.1854 7.15482C20.6973 7.64299 20.6973 8.42866 20.6973 10V13.3333C20.6973 14.9047 20.6973 15.6904 21.1854 16.1785C21.6736 16.6667 22.4593 16.6667 24.0306 16.6667H27.3639C28.9353 16.6667 29.7209 16.6667 30.2091 16.1785C30.6973 15.6904 30.6973 14.9047 30.6973 13.3333V10C30.6973 8.42866 30.6973 7.64299 30.2091 7.15482C29.7209 6.66667 28.9353 6.66667 27.3639 6.66667Z" stroke="#A601FF" stroke-width="1.5" stroke-linecap="round" stroke-linejoin="round"/>
<path d="M23.1973 16.6667V20M28.1973 16.6667V20M23.1973 3.33333V6.66666M28.1973 3.33333V6.66666M20.6973 9.16666H17.364M20.6973 14.1667H17.364M34.0307 9.16666H30.6973M34.0307 14.1667H30.6973" stroke="#A601FF" stroke-width="1.5" stroke-linecap="round" stroke-linejoin="round"/>
<path d="M18.1807 31.6667H18.1957" stroke="#A601FF" stroke-width="2" stroke-linecap="round" stroke-linejoin="round"/>
</svg>
