<svg width="40" height="41" viewBox="0 0 40 41" fill="none" xmlns="http://www.w3.org/2000/svg">
<path d="M28.3334 25.4993C28.3334 30.9993 28.3334 33.7493 26.7469 35.458C25.1604 37.1667 22.6069 37.1667 17.5001 37.1667C12.3932 37.1667 9.83976 37.1667 8.25325 35.458C6.66675 33.7493 6.66675 30.9993 6.66675 25.4993V15.4986C6.66675 9.9986 6.66675 7.24856 8.25325 5.53991C9.67068 4.01335 11.8599 3.85066 15.9525 3.83333" stroke="#10A142" stroke-width="1.5" stroke-linecap="round"/>
<path d="M26.6667 7.16667H23.3333C21.762 7.16667 20.9763 7.16667 20.4882 7.65482C20 8.14299 20 8.92866 20 10.5V13.8333C20 15.4047 20 16.1904 20.4882 16.6785C20.9763 17.1667 21.762 17.1667 23.3333 17.1667H26.6667C28.238 17.1667 29.0237 17.1667 29.5118 16.6785C30 16.1904 30 15.4047 30 13.8333V10.5C30 8.92866 30 8.14299 29.5118 7.65482C29.0237 7.16667 28.238 7.16667 26.6667 7.16667Z" stroke="#10A142" stroke-width="1.5" stroke-linecap="round" stroke-linejoin="round"/>
<path d="M22.5001 17.1667V20.5M27.5001 17.1667V20.5M22.5001 3.83333V7.16666M27.5001 3.83333V7.16666M20.0001 9.66666H16.6667M20.0001 14.6667H16.6667M33.3334 9.66666H30.0001M33.3334 14.6667H30.0001" stroke="#10A142" stroke-width="1.5" stroke-linecap="round" stroke-linejoin="round"/>
<path d="M17.4834 32.1667H17.4984" stroke="#10A142" stroke-width="2" stroke-linecap="round" stroke-linejoin="round"/>
</svg>
