<svg width="30" height="31" viewBox="0 0 30 31" fill="none" xmlns="http://www.w3.org/2000/svg">
<path d="M21.875 6.75C22.9105 6.75 23.75 7.58947 23.75 8.625C23.75 9.66053 22.9105 10.5 21.875 10.5C20.8395 10.5 20 9.66053 20 8.625C20 7.58947 20.8395 6.75 21.875 6.75Z" stroke="white" stroke-width="1.5" stroke-linecap="round" stroke-linejoin="round"/>
<path d="M3.46779 14.4299C2.21385 15.8304 2.18688 17.9432 3.3377 19.4296C5.62139 22.3791 8.12093 24.8786 11.0704 27.1622C12.5568 28.3131 14.6696 28.2861 16.0701 27.0322C19.8724 23.6277 23.3544 20.0699 26.7149 16.1599C27.0471 15.7734 27.2549 15.2996 27.3015 14.792C27.5078 12.5475 27.9315 6.08084 26.1754 4.32467C24.4191 2.56851 17.9525 2.99221 15.708 3.19845C15.2004 3.2451 14.7266 3.45291 14.34 3.78514C10.4302 7.14557 6.87227 10.6276 3.46779 14.4299Z" stroke="white" stroke-width="1.5"/>
<path d="M8.75 18L12.5 21.75" stroke="white" stroke-width="1.5" stroke-linecap="round" stroke-linejoin="round"/>
</svg>
