<svg width="30" height="31" viewBox="0 0 30 31" fill="none" xmlns="http://www.w3.org/2000/svg">
<path d="M11.25 6.75C11.25 4.98224 11.25 4.09835 11.7992 3.54918C12.3483 3 13.2323 3 15 3C16.7677 3 17.6516 3 18.2009 3.54918C18.75 4.09835 18.75 4.98224 18.75 6.75C18.75 8.51776 18.75 9.40165 18.2009 9.95082C17.6516 10.5 16.7677 10.5 15 10.5C13.2323 10.5 12.3483 10.5 11.7992 9.95082C11.25 9.40165 11.25 8.51776 11.25 6.75Z" stroke="white" stroke-width="1.5"/>
<path d="M2.5 24.25C2.5 22.4823 2.5 21.5984 3.04918 21.0491C3.59835 20.5 4.48224 20.5 6.25 20.5C8.01776 20.5 8.90165 20.5 9.45082 21.0491C10 21.5984 10 22.4823 10 24.25C10 26.0177 10 26.9016 9.45082 27.4509C8.90165 28 8.01776 28 6.25 28C4.48224 28 3.59835 28 3.04918 27.4509C2.5 26.9016 2.5 26.0177 2.5 24.25Z" stroke="white" stroke-width="1.5"/>
<path d="M20 24.25C20 22.4823 20 21.5984 20.5491 21.0491C21.0984 20.5 21.9823 20.5 23.75 20.5C25.5177 20.5 26.4016 20.5 26.9509 21.0491C27.5 21.5984 27.5 22.4823 27.5 24.25C27.5 26.0177 27.5 26.9016 26.9509 27.4509C26.4016 28 25.5177 28 23.75 28C21.9823 28 21.0984 28 20.5491 27.4509C20 26.9016 20 26.0177 20 24.25Z" stroke="white" stroke-width="1.5"/>
<path d="M15 10.5V11.75M15 11.75C15 12.9148 15 13.4972 15.222 13.9567C15.518 14.5692 16.0859 15.056 16.8005 15.3098C17.3365 15.5 18.016 15.5 19.375 15.5C20.734 15.5 21.4135 15.5 21.9495 15.6902C22.6641 15.944 23.232 16.4308 23.528 17.0433C23.75 17.5028 23.75 18.0851 23.75 19.25V20.5M15 11.75C15 12.9148 15 13.4972 14.778 13.9567C14.482 14.5692 13.9141 15.056 13.1995 15.3098C12.6635 15.5 11.984 15.5 10.625 15.5C9.266 15.5 8.5865 15.5 8.05051 15.6902C7.33584 15.944 6.76804 16.4308 6.47201 17.0433C6.25 17.5028 6.25 18.0851 6.25 19.25V20.5" stroke="white" stroke-width="1.5" stroke-linecap="round" stroke-linejoin="round"/>
</svg>
